<?xml version="1.0" standalone="no"?>
<!DOCTYPE svg PUBLIC "-//W3C//DTD SVG 20010904//EN"
 "http://www.w3.org/TR/2001/REC-SVG-20010904/DTD/svg10.dtd">
<svg version="1.0" xmlns="http://www.w3.org/2000/svg"
 width="700.000000pt" height="700.000000pt" viewBox="0 0 700.000000 700.000000"
 preserveAspectRatio="xMidYMid meet">
<metadata>
Created by potrace 1.14, written by Peter Selinger 2001-2017
</metadata>
<g transform="translate(0.000000,700.000000) scale(0.100000,-0.100000)"
fill="#000000" stroke="none">
<path d="M3445 5872 c-478 -24 -912 -250 -1226 -639 -172 -214 -287 -444 -358
-713 -19 -74 -25 -107 -41 -225 -8 -58 -5 -344 4 -395 12 -68 18 -98 27 -135
5 -22 12 -50 14 -62 10 -43 66 -195 98 -261 243 -512 777 -883 1337 -929 140
-12 432 -5 515 11 542 106 978 428 1210 896 62 123 106 253 141 415 19 88 26
363 12 485 -51 446 -307 902 -668 1190 -197 157 -398 257 -627 314 -117 29
-151 35 -268 42 -49 3 -97 6 -105 7 -8 1 -37 1 -65 -1z m255 -161 c330 -51
601 -192 851 -441 255 -255 425 -592 465 -920 3 -25 7 -56 10 -70 2 -14 5 -75
5 -136 2 -220 -82 -407 -262 -586 -80 -80 -99 -91 -99 -60 0 24 -27 48 -61 57
-19 5 -33 0 -53 -17 -32 -28 -37 -58 -20 -114 l13 -43 -42 -24 c-76 -44 -149
-78 -155 -73 -3 4 -13 27 -21 53 -18 53 -47 71 -95 59 -42 -10 -56 -54 -40
-122 7 -30 9 -56 5 -59 -30 -18 -221 -69 -229 -60 -3 3 -7 11 -8 18 -1 7 -4
28 -7 47 -8 47 -45 78 -86 72 -47 -7 -64 -38 -59 -112 2 -48 0 -60 -12 -61 -8
0 -24 -2 -35 -4 -11 -3 -63 -7 -115 -11 l-96 -6 3 48 c4 84 -26 125 -76 109
-25 -8 -35 -36 -36 -100 l-1 -50 -95 2 c-52 1 -109 5 -127 8 l-32 6 2 65 c3
61 1 67 -24 89 -49 42 -111 15 -123 -53 -12 -71 -14 -74 -48 -67 -29 6 -198
55 -205 60 -1 1 4 29 12 62 14 63 10 85 -23 110 -20 15 -56 16 -81 3 -12 -6
-26 -34 -36 -65 l-15 -55 -87 45 c-121 63 -112 54 -101 105 6 25 12 53 14 63
5 24 -34 65 -67 71 -32 5 -78 -26 -78 -54 0 -38 -19 -28 -103 56 -125 124
-201 246 -243 390 -19 67 -22 262 -4 384 82 578 459 1073 980 1287 226 93 510
129 740 94z m1154 -2293 c-27 -48 -109 -168 -115 -168 -3 0 -9 15 -13 33 -6
27 -2 36 21 56 15 13 46 38 68 57 42 37 50 41 39 22z m-2596 -87 c15 -8 20
-19 18 -34 -3 -12 -5 -28 -5 -34 -1 -7 -4 -13 -9 -13 -9 0 -112 151 -112 164
0 5 20 -10 44 -32 24 -22 53 -45 64 -51z m348 -241 c-3 -19 -8 -47 -11 -61 -7
-40 28 -79 71 -79 44 0 70 26 79 80 4 26 11 40 19 37 18 -7 165 -48 187 -52
48 -9 58 -16 54 -38 -15 -89 -14 -95 6 -121 14 -17 30 -26 50 -26 47 0 68 20
86 84 l16 58 66 -6 c36 -4 98 -9 136 -12 38 -3 72 -8 75 -10 2 -3 5 -24 6 -47
2 -89 4 -96 25 -107 29 -16 66 -5 75 23 5 12 9 46 9 74 1 29 3 55 6 57 2 2 38
7 79 10 72 6 163 15 184 19 5 1 17 -25 25 -57 18 -66 51 -97 97 -88 34 6 64
46 58 80 -2 15 -6 41 -9 59 -5 31 -4 33 37 43 24 6 81 22 127 36 45 14 85 24
87 22 1 -2 6 -19 9 -37 8 -49 21 -68 52 -79 70 -24 111 33 88 123 l-12 48 101
52 101 52 12 -35 c7 -19 21 -41 30 -48 16 -12 13 -17 -37 -66 -236 -226 -547
-373 -880 -416 -71 -9 -348 -9 -420 0 -249 32 -498 128 -705 272 -71 50 -88
63 -168 137 l-60 56 20 20 c12 12 24 34 27 50 l7 29 100 -50 100 -51 -5 -35z"/>
<path d="M2930 5085 c-152 -40 -281 -180 -340 -370 -28 -88 -34 -243 -13 -324
34 -130 125 -243 223 -278 27 -9 47 -20 44 -24 -2 -4 -21 -13 -42 -20 -53 -17
-72 -37 -72 -76 0 -43 30 -73 72 -73 19 0 73 20 127 47 74 37 110 63 176 127
96 94 149 180 199 318 39 108 49 161 48 260 -1 277 -201 472 -422 413z m177
-171 c51 -39 92 -132 98 -221 13 -225 -134 -453 -294 -453 -128 0 -211 134
-198 320 9 125 43 208 118 294 85 96 197 120 276 60z"/>
<path d="M3904 5083 c-28 -8 -76 -34 -107 -59 -100 -78 -162 -243 -150 -403
13 -174 104 -379 226 -509 88 -93 256 -192 326 -192 68 0 97 90 42 129 -16 12
-34 21 -41 21 -6 0 -21 5 -33 11 -19 11 -17 13 31 31 100 37 187 144 223 273
22 79 17 235 -10 325 -82 271 -302 432 -507 373z m171 -157 c87 -40 167 -151
200 -276 8 -30 13 -91 12 -139 -2 -75 -6 -95 -34 -151 -44 -90 -95 -124 -175
-117 -225 19 -370 414 -229 622 32 48 93 85 141 85 19 0 58 -11 85 -24z"/>
<path d="M3320 4120 c-17 -17 -80 -131 -80 -145 0 -3 7 -19 15 -35 19 -36 59
-49 94 -29 31 17 90 123 91 162 0 58 -78 89 -120 47z"/>
<path d="M3580 4120 c-11 -11 -20 -33 -20 -50 0 -35 42 -116 76 -147 42 -38
94 -26 112 26 9 25 6 39 -18 89 -16 33 -38 70 -49 81 -27 27 -75 27 -101 1z"/>
<path d="M1887 765 c-8 -8 -12 -25 -10 -39 5 -24 4 -25 -27 -16 -41 12 -63 0
-80 -39 -24 -59 23 -130 75 -111 11 4 34 5 52 3 l32 -5 -1 105 c-1 110 -11
133 -41 102z m-19 -102 c13 -27 9 -55 -10 -67 -13 -8 -20 -8 -28 0 -25 25 -14
84 15 84 8 0 18 -8 23 -17z"/>
<path d="M2075 767 c-2 -7 -3 -56 -2 -109 1 -95 1 -98 24 -98 13 0 23 4 23 9
0 6 12 4 26 -3 34 -18 57 -11 78 25 12 20 15 39 10 63 -9 53 -43 73 -92 55
-19 -7 -23 -6 -21 9 3 37 -2 50 -22 55 -11 3 -22 0 -24 -6z m105 -107 c22 -42
-21 -90 -47 -54 -16 22 -17 46 -1 62 18 18 36 15 48 -8z"/>
<path d="M3034 771 c-19 -6 -20 -14 -21 -108 l-1 -103 27 0 26 0 -1 105 c-1
59 -3 107 -5 109 -2 1 -13 0 -25 -3z"/>
<path d="M783 759 c-57 -17 -85 -85 -58 -142 20 -42 48 -59 101 -59 52 0 64 7
64 34 0 15 -4 18 -17 13 -31 -14 -76 -8 -90 11 -8 11 -13 35 -11 54 4 46 43
70 88 53 27 -10 30 -9 30 7 0 33 -50 46 -107 29z"/>
<path d="M2557 761 c-2 -3 -3 -49 -3 -101 l1 -95 26 -3 c27 -3 27 -3 25 62 -1
66 7 86 19 44 24 -85 55 -90 84 -15 l20 52 0 -72 c1 -73 1 -73 29 -73 l27 0
-1 93 c-1 50 -2 97 -3 103 -1 9 -25 11 -62 5 -4 -1 -16 -25 -28 -53 l-23 -53
-20 50 c-11 27 -21 52 -23 54 -7 6 -65 9 -68 2z"/>
<path d="M1460 740 c0 -12 -7 -23 -15 -26 -19 -8 -20 -34 -2 -34 9 0 14 -15
16 -47 0 -25 6 -52 12 -60 16 -18 75 -17 83 2 3 8 1 16 -4 16 -6 1 -15 2 -20
3 -18 2 -27 25 -22 56 3 24 9 30 28 30 15 0 24 6 24 15 0 13 -18 20 -42 16 -5
0 -8 9 -8 22 0 17 -6 23 -25 25 -19 1 -25 -3 -25 -18z"/>
<path d="M936 711 c-1 -3 -2 -37 -2 -76 1 -65 3 -70 24 -73 13 -2 22 2 23 10
0 7 2 30 3 51 2 39 20 61 44 52 17 -6 28 23 14 37 -8 8 -19 6 -38 -7 -14 -9
-24 -13 -20 -7 3 5 -6 12 -19 15 -14 2 -27 2 -29 -2z"/>
<path d="M1109 709 c-27 -10 -49 -46 -49 -79 0 -10 10 -31 23 -46 19 -22 31
-26 70 -26 56 1 67 7 67 33 0 16 -3 18 -19 9 -28 -15 -67 -12 -81 5 -11 13 -8
15 16 16 99 4 102 6 84 48 -17 41 -62 57 -111 40z m62 -44 c0 -5 -14 -11 -31
-13 -24 -2 -29 0 -24 13 7 17 55 18 55 0z"/>
<path d="M1272 708 c-20 -20 -2 -37 28 -28 20 6 34 4 47 -6 17 -12 16 -13 -7
-14 -71 -4 -99 -25 -84 -66 12 -35 44 -46 78 -29 15 8 26 10 26 4 0 -6 10 -9
23 -7 19 3 22 9 23 56 2 69 -16 92 -78 96 -25 2 -51 -1 -56 -6z m78 -98 c-12
-22 -35 -26 -46 -9 -8 13 13 29 39 29 15 0 16 -3 7 -20z"/>
<path d="M1613 707 c-47 -27 -56 -80 -20 -122 18 -22 31 -27 69 -27 56 0 68 6
68 33 0 16 -3 18 -19 9 -28 -15 -67 -12 -81 5 -14 16 -17 15 63 18 30 2 42 6
43 17 1 20 -28 70 -41 71 -5 1 -22 2 -37 3 -14 2 -34 -2 -45 -7z m70 -41 c4
-9 -4 -13 -24 -14 -19 0 -29 4 -29 14 0 18 46 19 53 0z"/>
<path d="M2273 712 c-18 -3 -20 -7 -13 -20 15 -26 60 -134 60 -143 0 -4 -9
-11 -20 -14 -27 -9 -26 -35 3 -35 36 0 45 12 82 103 41 101 41 103 15 110 -16
4 -22 -4 -36 -45 -9 -27 -18 -47 -21 -44 -3 3 -15 25 -27 48 -17 35 -26 43
-43 40z"/>
<path d="M2834 712 c-20 -3 -21 -5 -9 -30 24 -50 43 -97 50 -120 5 -18 2 -25
-14 -29 -28 -7 -27 -33 2 -33 37 0 47 13 86 111 32 81 35 95 22 100 -23 9 -36
-5 -50 -52 -14 -46 -16 -46 -45 13 -16 34 -26 43 -42 40z"/>
<path d="M3110 710 c-11 -7 -7 -24 20 -85 28 -64 31 -78 19 -86 -8 -5 -17 -9
-21 -9 -5 0 -8 -7 -8 -15 0 -16 36 -20 57 -7 7 4 30 51 52 104 l39 96 -24 5
c-20 4 -25 -2 -40 -45 -8 -26 -19 -46 -23 -44 -4 3 -13 23 -21 45 -14 42 -28
54 -50 41z"/>
<path d="M1693 388 l0 -109 26 3 c23 3 26 7 24 41 -3 44 11 77 32 77 13 0 28
-28 24 -46 -1 -5 -1 -24 0 -41 1 -28 5 -33 26 -33 24 0 25 3 25 60 0 47 -4 64
-21 81 -19 19 -29 19 -76 2 -9 -3 -11 6 -10 30 3 31 0 36 -24 39 l-26 4 0
-108z"/>
<path d="M742 478 c-7 -7 -12 -20 -12 -30 0 -10 -7 -18 -15 -18 -8 0 -15 -5
-15 -10 0 -6 7 -13 15 -16 11 -5 15 -22 15 -65 0 -56 1 -59 25 -59 24 0 25 3
25 60 0 53 2 60 20 60 13 0 20 7 20 19 0 14 -5 18 -20 14 -14 -4 -20 0 -20 11
0 10 9 16 23 16 14 0 24 6 24 15 0 19 -67 21 -85 3z"/>
<path d="M2193 481 c-5 -3 -8 -49 -8 -101 0 -95 0 -95 26 -98 25 -3 26 -2 24
57 0 34 2 61 6 61 3 0 19 -26 35 -57 26 -51 34 -58 62 -61 l32 -3 0 100 c0 56
-3 101 -7 102 -5 0 -16 2 -25 4 -16 3 -18 -6 -19 -68 l0 -72 -17 35 c-9 19
-19 37 -22 40 -3 3 -12 19 -20 35 -14 29 -46 41 -67 26z"/>
<path d="M3108 476 c-2 -6 -4 -51 -3 -101 l0 -90 28 -3 c25 -3 27 -1 27 32 0
34 2 36 33 36 69 0 104 59 63 107 -19 21 -32 26 -83 28 -39 1 -63 -2 -65 -9z
m93 -36 c34 -19 18 -50 -27 -50 -14 0 -20 41 -7 53 8 9 11 9 34 -3z"/>
<path d="M3642 473 c2 -10 13 -19 26 -21 17 -3 22 2 22 17 0 16 -6 21 -26 21
-19 0 -25 -5 -22 -17z"/>
<path d="M1569 470 c-1 -3 0 -13 1 -24 1 -11 -3 -15 -9 -12 -6 4 -11 5 -11 2
0 -2 -3 -11 -6 -20 -4 -10 -1 -16 9 -16 12 0 15 -11 15 -45 0 -25 6 -52 12
-60 13 -16 75 -21 84 -7 7 12 -7 27 -24 27 -10 0 -16 13 -18 43 -3 39 -1 42
22 42 16 0 26 6 26 15 0 14 -11 19 -36 16 -7 -1 -15 10 -18 23 -4 17 -13 24
-26 23 -11 -1 -21 -4 -21 -7z"/>
<path d="M4110 460 c0 -10 -8 -24 -17 -29 -16 -10 -17 -12 -2 -23 9 -8 16 -30
17 -57 1 -24 7 -50 13 -57 16 -19 75 -18 83 1 3 8 1 16 -4 16 -6 1 -15 2 -21
3 -13 1 -25 31 -24 61 0 15 7 20 25 20 15 0 26 7 28 18 3 16 -7 21 -35 18 -11
-2 -17 15 -15 39 0 3 -10 7 -24 8 -18 1 -24 -3 -24 -18z"/>
<path d="M859 433 c-13 -3 -16 -18 -16 -78 1 -74 1 -75 26 -75 24 0 26 3 24
45 -1 50 18 79 46 70 12 -3 17 1 18 15 2 26 -12 33 -37 20 -13 -7 -26 -8 -33
-2 -7 4 -19 7 -28 5z"/>
<path d="M1014 428 c-23 -11 -44 -47 -44 -78 0 -62 103 -97 150 -50 25 25 26
80 3 109 -20 23 -77 33 -109 19z m60 -34 c32 -12 14 -84 -21 -84 -20 0 -35 47
-23 71 11 20 19 23 44 13z"/>
<path d="M1257 433 c-4 -3 -25 -6 -47 -5 l-39 2 2 -73 c2 -68 3 -72 26 -72 21
0 24 5 25 47 3 89 46 91 46 2 0 -52 1 -54 28 -54 26 0 27 2 24 45 -4 47 9 75
34 75 10 0 14 -16 14 -60 0 -57 1 -60 25 -60 24 0 25 2 25 65 0 59 -2 66 -26
82 -25 16 -29 16 -55 1 -24 -14 -30 -14 -40 -2 -12 15 -31 18 -42 7z"/>
<path d="M1929 429 c-50 -19 -61 -96 -20 -134 32 -28 131 -20 131 11 0 12 -9
14 -43 9 -33 -5 -46 -3 -56 9 -15 18 -13 18 44 18 68 -1 82 18 43 62 -27 30
-63 39 -99 25z m61 -44 c0 -10 -9 -14 -25 -13 -14 1 -25 8 -25 15 0 7 11 13
25 13 15 0 25 -6 25 -15z"/>
<path d="M2443 428 c-44 -20 -53 -93 -16 -129 31 -30 93 -28 123 3 25 27 26
78 3 107 -20 24 -77 33 -110 19z m73 -52 c7 -28 -11 -66 -31 -66 -14 0 -33 26
-33 45 0 44 53 62 64 21z"/>
<path d="M2623 432 c-20 -3 -23 -9 -22 -50 2 -93 29 -125 83 -97 14 8 26 10
26 4 0 -5 10 -9 23 -9 23 0 24 3 23 74 0 63 -3 75 -18 79 -23 6 -31 -6 -33
-57 -3 -54 -2 -53 -25 -59 -22 -6 -28 8 -32 78 -3 35 -6 40 -25 37z"/>
<path d="M2823 432 c-19 -3 -21 -9 -20 -78 0 -71 2 -74 24 -74 20 0 23 5 23
34 0 51 17 88 38 84 17 -3 19 -11 21 -80 1 -33 4 -38 25 -38 24 0 25 3 24 58
-1 31 -3 63 -6 70 -8 22 -50 34 -74 21 -11 -6 -23 -7 -27 -2 -3 4 -16 7 -28 5z"/>
<path d="M3328 429 c-12 -7 -16 -24 -15 -79 0 -67 1 -70 24 -70 12 0 23 3 24
8 0 4 2 26 2 50 2 46 20 65 50 56 15 -5 18 -1 15 18 -3 24 -24 31 -45 15 -8
-6 -18 -6 -26 1 -8 7 -18 7 -29 1z"/>
<path d="M3483 428 c-62 -29 -46 -141 22 -148 67 -7 105 21 105 77 0 30 -26
71 -47 74 -40 6 -61 5 -80 -3z m67 -42 c16 -20 9 -56 -13 -70 -23 -14 -45 11
-41 46 1 13 3 26 3 31 2 13 38 8 51 -7z"/>
<path d="M3784 429 c-54 -15 -70 -79 -31 -125 19 -22 32 -27 69 -27 51 0 68 7
68 28 0 11 -10 13 -43 9 -32 -5 -46 -2 -56 10 -15 18 -13 19 55 16 23 -1 45 3
48 8 10 17 -15 71 -37 78 -33 11 -39 12 -73 3z m59 -43 c4 -11 -2 -14 -24 -14
-17 1 -29 6 -29 15 0 18 46 17 53 -1z"/>
<path d="M3956 421 c-50 -30 -42 -111 14 -135 41 -17 85 -10 87 14 1 16 -4 18
-25 14 -35 -6 -53 7 -56 39 -4 35 16 51 54 43 25 -5 30 -2 30 14 0 11 -6 20
-12 21 -7 1 -25 2 -40 3 -14 2 -38 -4 -52 -13z"/>
<path d="M3643 348 c0 -63 -4 -84 -17 -93 -9 -7 -16 -17 -16 -24 0 -17 46 -13
64 5 15 14 18 31 18 104 0 87 -1 90 -25 90 -22 0 -23 -3 -24 -82z"/>
</g>
</svg>
