<?xml version="1.0" standalone="no"?>
<!DOCTYPE svg PUBLIC "-//W3C//DTD SVG 20010904//EN"
 "http://www.w3.org/TR/2001/REC-SVG-20010904/DTD/svg10.dtd">
<svg version="1.0" xmlns="http://www.w3.org/2000/svg"
 width="952.000000pt" height="952.000000pt" viewBox="0 0 952.000000 952.000000"
 preserveAspectRatio="xMidYMid meet">
<metadata>
Created by potrace 1.14, written by Peter Selinger 2001-2017
</metadata>
<g transform="translate(0.000000,952.000000) scale(0.100000,-0.100000)"
fill="#000000" stroke="none">
<path d="M1159 9213 c-15 -6 -33 -22 -40 -34 -9 -18 -12 -942 -11 -4264 0
-2332 1 -4250 1 -4263 1 -13 13 -36 28 -51 28 -27 30 -27 156 -26 120 0 127
-1 128 -20 1 -11 1 -54 0 -95 -1 -102 6 -138 29 -150 26 -14 75 -19 91 -9 7 4
17 5 21 3 5 -3 1558 -5 3452 -5 2751 0 3448 2 3464 12 11 7 22 24 24 38 1 14
3 1942 2 4283 0 4116 -1 4258 -18 4277 -16 18 -30 21 -108 19 -48 0 -91 1 -94
4 -3 3 -6 58 -6 121 -1 107 -2 117 -25 141 -13 15 -36 26 -51 27 -15 1 -1599
2 -3521 3 -2646 1 -3501 -2 -3522 -11z m6942 -170 c6 -34 3 -105 -3 -110 -5
-2 -1500 -5 -3322 -5 -3196 0 -3315 0 -3334 -18 -19 -18 -19 -57 -19 -4084 0
-2237 -2 -4069 -5 -4071 -2 -3 -34 -6 -70 -7 l-66 -3 1 90 c0 50 -3 96 -7 103
-4 7 -4 12 1 12 10 0 9 292 -1 308 -4 7 -4 12 1 12 10 0 9 292 -1 308 -4 7 -4
12 1 12 4 0 8 117 8 260 0 143 -4 260 -8 260 -5 0 -5 5 -2 11 6 9 10 209 5
234 -1 6 -1 15 0 20 6 29 4 218 -3 222 -4 2 -4 9 -1 15 4 6 6 45 5 87 -1 42
-1 81 -1 86 -1 42 0 247 1 275 2 177 1 251 -4 257 -4 3 -4 10 0 16 8 13 8 215
0 224 -4 3 -4 10 0 16 6 9 8 145 3 165 -1 4 -1 12 0 17 3 13 3 227 0 240 -1 6
-1 15 0 20 5 25 2 256 -3 262 -4 3 -4 10 0 16 8 14 7 153 -2 166 -3 6 -3 11 2
11 10 0 9 292 -1 308 -4 7 -4 12 1 12 10 0 9 292 -1 308 -4 7 -4 12 1 12 10 0
9 292 -1 308 -4 7 -4 12 1 12 4 0 8 99 8 220 0 121 -4 220 -8 220 -5 0 -5 5
-1 11 3 6 6 77 5 158 0 80 -1 162 0 181 0 19 0 73 0 120 -1 92 -1 130 2 200 1
25 -1 55 -5 66 -4 12 -4 25 -1 28 5 5 7 85 4 236 -1 47 -1 267 0 310 0 19 0
73 0 120 -1 92 -1 130 2 200 1 25 -1 55 -5 66 -4 12 -4 25 -1 28 5 5 7 80 4
236 -1 19 -1 91 -1 160 0 69 -1 130 -1 135 0 6 1 44 2 86 1 42 -1 81 -5 88 -4
6 -4 11 1 11 10 0 9 292 -1 308 -4 7 -4 12 1 12 4 0 7 87 6 192 -1 106 1 201
4 211 4 16 175 17 3409 17 1872 0 3405 -3 3405 -7z"/>
</g>
</svg>
